<svg width="128" height="128" viewBox="0 0 128 128" fill="none" xmlns="http://www.w3.org/2000/svg">
<g clip-path="url(#clip0_413_2)">
<rect width="128" height="128" rx="25" fill="url(#paint0_linear_413_2)"/>
<path d="M69.1849 73.396V41.52H72.4609V73.656C72.4609 76.152 73.7262 77.452 76.2569 77.556V80.416C71.5422 80.416 69.1849 78.076 69.1849 73.396ZM81.931 47.916V43.652H85.675V47.916H81.931ZM82.139 80V53.064H85.415V80H82.139ZM93.971 80V41.52H97.247V53.064H108.375C113.436 53.064 115.967 55.612 115.967 60.708V72.356C115.967 77.452 113.436 80 108.375 80H93.971ZM97.247 77.14H108.479C111.287 77.14 112.691 75.7187 112.691 72.876V60.188C112.691 57.38 111.287 55.976 108.479 55.976H97.247V77.14Z" fill="white"/>
<path d="M63 67.0417L62.9896 66.7187L62.9687 66.3958L62.9375 66.0729L62.9062 65.7604L62.8645 65.4479L62.8125 65.1354L62.7604 64.8229L62.6978 64.5208L62.6249 64.2187L62.5416 63.9167L62.4582 63.6146L62.3644 63.3229L62.2707 63.0312L62.1665 62.7396L62.0518 62.4583L61.9372 62.1771L61.8122 61.8958L61.6768 61.625L61.5413 61.3542L61.3954 61.0833L61.2496 60.8229L61.0933 60.5625L60.937 60.3125L60.7703 60.0625L60.5932 59.8125L60.416 59.5729L60.2285 59.3333L60.0409 59.1042L59.843 58.875L59.645 58.6562L59.4366 58.4375L59.2282 58.2292L59.0094 58.0208L58.7906 57.8229L58.5718 57.625L58.3426 57.4375L58.1134 57.25L57.8737 57.0729L57.6341 56.8958L57.3944 56.7292L57.1444 56.5729L56.8943 56.4167L56.6338 56.2708L56.3734 56.125L56.1129 55.9896L55.842 55.8646L55.5711 55.7396L55.3002 55.625L55.0189 55.5104L54.7375 55.4062L54.4562 55.3125L54.1645 55.2187L53.8727 55.1354L53.581 55.0625L53.2893 55L52.9871 54.9375L52.685 54.8854L52.3828 54.8437L52.0806 54.8125L51.7681 54.7812L51.4555 54.7604L51.1429 54.75H50.8303H50.5073L50.1843 54.7604L49.8613 54.7812L49.5383 54.8125L49.2258 54.8542L48.9132 54.8958L48.6006 54.9479L48.2985 55.0104L47.9963 55.0729L47.6941 55.1458L47.4024 55.2292L47.1107 55.3125L46.8189 55.4062L46.5376 55.5L46.2563 55.6042L45.9854 55.7187L45.7145 55.8333L45.4436 55.9583L45.1831 56.0833L44.9226 56.2187L44.6621 56.3542L44.4121 56.5L44.162 56.6458L43.9224 56.8021L43.6827 56.9583L43.4535 57.1146L43.2243 57.2812L42.9951 57.4479L42.7763 57.6146L42.5575 57.7917L42.3491 57.9687L42.1615 58.1354L42.0677 58.2187L41.9636 58.3125L41.8594 58.4167L41.7448 58.5208L41.6301 58.6354L41.5051 58.7604L41.3801 58.8854L41.2446 59.0208L41.0988 59.1667L40.9529 59.3125L40.7966 59.4687L40.6403 59.6354L40.4736 59.8125L40.3069 59.9896L40.1298 60.1771L39.9526 60.375L39.7651 60.5833L39.6713 60.6875L39.5776 60.7917L39.4838 60.9062L39.39 61.0208L39.2962 61.1354L39.192 61.25L39.0878 61.3646L38.9837 61.4896L38.8795 61.6146L38.7753 61.7396L38.6711 61.8646L38.5669 62L38.4627 62.1354L38.3481 62.2708L38.2335 62.4062L38.1189 62.5521L38.0042 62.6979L37.8896 62.8437L37.775 62.9896L37.6604 63.1354L37.5458 63.2917L37.4208 63.4479L37.2957 63.6042L37.1707 63.7604L37.0457 63.9271L36.9206 64.0937L36.7956 64.2604L36.6706 64.4271L36.5456 64.5937L36.4205 64.7708L36.1913 65.0833L35.9621 65.3854L35.712 65.6771L35.4828 65.9687L35.264 66.25L35.0452 66.5208L34.8264 66.7917L34.618 67.0521L34.4096 67.3021L34.2012 67.5521L34.0033 67.7917L33.8053 68.0208L33.6073 68.25L33.4198 68.4687L33.2322 68.6771L33.0551 68.8854L32.878 69.0833L32.7009 69.2708L32.5341 69.4583L32.3674 69.6354L32.2112 69.8021L32.0549 69.9687L31.8986 70.125L31.7527 70.2708L31.6068 70.4167L31.4714 70.5521L31.3359 70.6875L31.2109 70.8125L31.0859 70.9271L30.9713 71.0417L30.8566 71.1458L30.7525 71.25L30.6483 71.3437L30.5337 71.4375L30.4086 71.5312L30.2836 71.625L30.1481 71.7187L30.0127 71.8125L29.8668 71.9271L29.721 72.0208L29.5647 72.1146L29.4084 72.2083L29.2521 72.3021L29.0854 72.3854L28.9187 72.4687L28.752 72.5521L28.5853 72.625L28.4185 72.6979L28.231 72.7708L28.0435 72.8437L27.8559 72.9062L27.6475 72.9687L27.4496 73.0208L27.262 73.0729L27.064 73.1146L26.8661 73.1562L26.6681 73.1979L26.4806 73.2292L26.293 73.2604L26.1055 73.2812L25.9284 73.3021L25.7512 73.3125L25.5741 73.3229H25.4074H25.2198L25.0427 73.3125L24.8656 73.3021L24.6885 73.2812L24.5218 73.2604L24.355 73.2396L24.1883 73.2083L24.032 73.1771L23.8758 73.1458L23.7195 73.1042L23.5632 73.0625L23.4173 73.0208L23.2714 72.9687L23.1256 72.9167L22.9901 72.8646L22.8547 72.8021L22.7192 72.7396L22.5838 72.6771L22.4587 72.6042L22.3337 72.5313L22.2087 72.4583L22.0837 72.3854L21.969 72.3021L21.8544 72.2187L21.7398 72.1354L21.6356 72.0312L21.5314 71.9375L21.4272 71.8437L21.323 71.75L21.2189 71.6563L21.1147 71.5521L21.0209 71.4479L20.9271 71.3437L20.8333 71.2396L20.7396 71.125L20.6562 71.0104L20.5729 70.8958L20.4895 70.7813L20.4166 70.6667L20.3436 70.5417L20.2707 70.4167L20.1978 70.2917L20.1353 70.1667L20.0727 70.0521L20.0102 69.9271L19.9477 69.8021L19.8956 69.6667L19.8435 69.5312L19.7914 69.3958L19.7497 69.2604L19.7081 69.125L19.6664 68.9896L19.6247 68.8542L19.5935 68.7187L19.5622 68.5833L19.5309 68.4479L19.5101 68.3125L19.4893 68.1771L19.4684 68.0417L19.458 67.9062L19.4476 67.7708L19.4372 67.6354V67.5V67.3646V67.2083L19.4476 67.0625L19.458 66.9167L19.4684 66.7708L19.4788 66.625L19.4997 66.4792L19.5205 66.3333L19.5414 66.1979L19.5726 66.0625L19.6039 65.9271L19.6351 65.7917L19.6768 65.6562L19.7185 65.5208L19.7602 65.3854L19.8018 65.2604L19.8539 65.1354L19.906 65.0104L19.9581 64.8854L20.0102 64.7604L20.0727 64.6354L20.1353 64.5208L20.1978 64.4062L20.2603 64.2917L20.3332 64.1771L20.4062 64.0625L20.4791 63.9479L20.552 63.8438L20.6354 63.7396L20.7187 63.6354L20.8021 63.5312L20.8854 63.4271L20.9688 63.3229L21.0626 63.2292L21.1563 63.1354L21.2501 63.0417L21.3439 62.9479L21.4377 62.8646L21.5314 62.7813L21.6356 62.6979L21.7398 62.6146L21.844 62.5312L21.9482 62.4583L22.0524 62.3854L22.1566 62.3125L22.2608 62.2396L22.365 62.1771L22.4692 62.1146L22.5838 62.0521L22.6984 62L22.813 61.9479L22.9276 61.8958L23.0422 61.8437L23.1568 61.8021L23.2714 61.7604L23.3861 61.7187L23.5007 61.6771L23.6153 61.6458L23.7299 61.6146L23.8445 61.5833L23.9591 61.5625L24.0737 61.5417L24.1883 61.5208L24.2925 61.5L24.3967 61.4896L24.5843 61.4687L24.7614 61.4479L24.9385 61.4375L25.1052 61.4271L25.2719 61.4167L25.4282 61.4062H25.5845H25.7304H25.8554H25.97H26.0846H26.1993L26.4181 61.4167L26.6264 61.4375L26.8348 61.4583L27.0328 61.4896L27.2308 61.5208L27.4183 61.5625L27.6058 61.6042L27.7934 61.6562L27.9809 61.7083L28.1789 61.7708L28.3769 61.8333L28.5853 61.9062L28.7936 61.9792L28.8978 62.0208L29.0124 62.0625L29.1375 62.1042L29.2625 62.1458L29.3875 62.1771L29.5126 62.2083L29.6376 62.2292L29.7626 62.25L29.8877 62.2604L30.0127 62.2708H30.1377H30.2628L30.3878 62.2604L30.5128 62.25L30.6378 62.2292L30.7629 62.2083L30.8879 62.1771L31.0129 62.1458L31.138 62.1042L31.263 62.0625L31.3776 62.0104L31.4922 61.9583L31.6068 61.8958L31.7214 61.8333L31.8361 61.7604L31.9403 61.6875L32.0444 61.6042L32.1486 61.5208L32.2424 61.4271L32.3362 61.3333L32.43 61.2396L32.5237 61.1354L32.6071 61.0312L32.6904 60.9167L32.7634 60.8021L32.8363 60.6875L32.8988 60.5729L33.0239 60.4687L33.0759 60.3437L33.128 60.2187L33.1697 60.0937L33.2114 59.9687L33.2427 59.8437L33.2739 59.7187L33.3052 59.5833L33.326 59.4479L33.3468 59.3125L33.3573 59.1771L33.3677 59.0417V58.9062V58.7708L33.3573 58.6354L33.3468 58.5L33.3156 58.3854L33.2948 58.25L33.2635 58.125L33.2322 58L33.1906 57.875L33.1489 57.75L33.0968 57.625L33.0447 57.5L32.9822 57.375L32.9197 57.2604L32.8467 57.1458L32.7738 57.0312L32.6904 56.9167L32.68 56.9062L32.6696 56.8958L32.6488 56.8646L32.6175 56.8229L32.5862 56.7708L32.555 56.7083L32.5133 56.6458L32.4716 56.5729L32.43 56.4896L32.3779 56.4062L32.3258 56.3021L32.2737 56.2083L32.2216 56.1042L32.1695 56L32.1174 55.8854L32.0653 55.7708L32.0132 55.6458L31.9611 55.5208L31.909 55.3958L31.8569 55.2604L31.8152 55.125L31.7735 54.9896L31.7423 54.8437L31.7006 54.7083L31.6694 54.5729L31.6381 54.4271L31.6068 54.2812L31.586 54.1354L31.5652 53.9896L31.5547 53.8542L31.5443 53.7187L31.5339 53.5833V53.4479V53.4167V53.3958V53.375V53.3542V53.3437V53.2188L31.5443 53.0937L31.5547 52.9687L31.5652 52.8437L31.5756 52.7187L31.5964 52.5937L31.6173 52.4792L31.6381 52.3646L31.6589 52.25L31.6902 52.1354L31.7214 52.0208L31.7527 51.9062L31.784 51.8021L31.8256 51.6979L31.8673 51.5937L31.909 51.4896L31.9507 51.3854L31.9923 51.2812L32.0444 51.1771L32.0965 51.0833L32.1486 50.9896L32.2007 50.8958L32.2528 50.8021L32.3153 50.7083L32.3779 50.6146L32.4404 50.5312L32.5029 50.4479L32.5654 50.3646L32.6279 50.2812L32.7009 50.1979L32.7738 50.1146L32.8467 50.0521L33.003 49.9062L33.0864 49.8333L33.1697 49.7604L33.2531 49.6875L33.3364 49.625L33.4302 49.5625L33.524 49.5L33.6177 49.4375L33.7115 49.375L33.8053 49.3125L33.9095 49.2604L34.0137 49.2083L34.1179 49.1562L34.2221 49.1042L34.3367 49.0521L34.4513 49.0104L34.5659 48.9687L34.6909 48.9271L34.816 48.8854L34.941 48.8542L35.066 48.8229L35.2015 48.7917L35.3369 48.7604L35.4724 48.7396L35.6182 48.7187L35.7641 48.6979L35.91 48.6875L36.0663 48.6771L36.2226 48.6667L36.3788 48.6562H36.5456H36.7227L36.9102 48.6667L37.1082 48.6771L37.3062 48.6979L37.4937 48.7187L37.6813 48.75L37.8688 48.7812L38.0459 48.8125L38.2231 48.8542L38.4002 48.8958L38.5669 48.9479L38.7336 49L38.9003 49.0625L39.0566 49.125L39.2129 49.1875L39.3692 49.2604L39.5255 49.3333L39.6713 49.4167L39.8172 49.5L39.9631 49.5833L40.0777 49.6771L40.2235 49.7708L40.359 49.875L40.4944 49.9792L40.6299 50.0938L40.7653 50.2083L40.9008 50.3333L41.0362 50.4583L41.1613 50.5937L41.2863 50.7292L41.4113 50.875L41.5364 51.0312L41.6614 51.1875L41.7864 51.3542L41.8906 51.4896L41.9948 51.6146L42.1094 51.7396L42.224 51.8542L42.3491 51.9583L42.4741 52.0625L42.5991 52.1562L42.7346 52.2396L42.87 52.3125L43.0055 52.3854L43.1514 52.4479L43.2972 52.5L43.4431 52.5521L43.589 52.5937L43.7348 52.625L43.8911 52.6562L44.0474 52.6771L44.2037 52.6875H44.36H44.5163L44.6726 52.6771L44.8288 52.6562L44.9851 52.625L45.1414 52.5937L45.2977 52.5521L45.4436 52.5L45.5895 52.4375L45.7353 52.375L45.8812 52.3021L46.0271 52.2187L46.1625 52.125L46.298 52.0208L46.423 51.9167L46.548 51.8021L46.6626 51.6875L46.7772 51.5625L46.8814 51.4375L46.9752 51.3021L47.069 51.1667L47.1523 51.0312L47.2253 50.8854L47.2982 50.7396L47.3607 50.5937L47.4128 50.4479L47.4649 50.2917L47.5066 50.1354L47.5379 49.9792L47.5587 49.8229L47.5795 49.6667L47.5899 49.5104V49.3542V49.1979L47.5795 49.0417L47.5587 48.8854L47.5274 48.7292L47.4962 48.5729L47.4545 48.4167L47.4024 48.2604L47.3503 48.1042L47.2878 47.9479L47.2149 47.8021L47.1315 47.6563L47.0481 47.5104L46.9544 47.375L46.8398 47.2188L46.7252 47.0729L46.6105 46.9271L46.4959 46.7812L46.3813 46.6354L46.2667 46.4896L46.1417 46.3542L46.0166 46.2187L45.8916 46.0833L45.7666 45.9479L45.6415 45.8125L45.5165 45.6771L45.3915 45.5521L45.256 45.4271L45.1206 45.3021L44.9851 45.1771L44.8497 45.0521L44.7142 44.9375L44.5788 44.8229L44.4433 44.7083L44.2975 44.5937L44.1516 44.4896L44.0057 44.3854L43.8599 44.2812L43.714 44.1771L43.5681 44.0729L43.4222 43.9792L43.2764 43.8854L43.1201 43.7917L42.9638 43.6979L42.8075 43.6042L42.6512 43.5208L42.4949 43.4375L42.3386 43.3542L42.1824 43.2708L42.0261 43.1979L41.8698 43.125L41.7031 43.0521L41.5364 42.9792L41.3697 42.9167L41.203 42.8542L41.0362 42.7917L40.8695 42.7292L40.7028 42.6667L40.5361 42.6146L40.3694 42.5625L40.2027 42.5104L40.036 42.4583L39.6922 42.375L39.3483 42.2917L39.0045 42.2187L38.6502 42.1562L38.296 42.1042L37.9417 42.0625L37.5875 42.0312L37.2332 42.0104L36.8998 42H36.5664H36.2642L35.9621 42.0104L35.6599 42.0312L35.3682 42.0521L35.0764 42.0833L34.7847 42.125L34.493 42.1667L34.2116 42.2187L33.9303 42.2812L33.649 42.3437L33.3677 42.4167L33.0968 42.4896L32.7842 42.5625L32.5133 42.6562L32.2528 42.75L31.9923 42.8542L31.7319 42.9583L31.4818 43.0729L31.2317 43.1979L30.9817 43.3229L30.742 43.4583L30.492 43.5937L30.2523 43.7396L30.0231 43.8854L29.7939 44.0417L29.5751 44.1979L29.3563 44.3646L29.1479 44.5312L28.9395 44.7083L28.7415 44.8854L28.5436 45.0729L28.3456 45.2604L28.1581 45.4583L27.9705 45.6562L27.7934 45.8646L27.6163 46.0729L27.4496 46.2812L27.2829 46.5L27.1266 46.7187L26.9807 46.9479L26.8348 47.1771L26.6994 47.4062L26.5639 47.6458L26.4389 47.8854L26.3139 48.125L26.1993 48.375L26.0846 48.625L25.9804 48.875L25.8763 49.125L25.7825 49.3854L25.6991 49.6458L25.6158 49.9062L25.5428 50.1667L25.4699 50.4271L25.4074 50.6979L25.3449 50.9687L25.2928 51.2396L25.2511 51.5104L25.2094 51.7812L25.1782 52.0521L25.1469 52.3229L25.1261 52.6042L25.1052 52.8854V53.1771V53.1667V53.2396V53.3125V53.3854V53.4479V53.6146V53.7812L25.1156 53.9479L25.1261 54.1146L25.1365 54.2812L25.1469 54.4375L25.1573 54.5937L25.1782 54.75L24.8239 54.7604L24.4697 54.7812L24.105 54.8125L23.7299 54.8542L23.4486 54.8854L23.1673 54.9271L22.8859 54.9792L22.6046 55.0417L22.3233 55.1042L22.042 55.1771L21.7711 55.2604L21.5002 55.3437L21.2293 55.4375L20.9584 55.5417L20.6979 55.6458L20.4374 55.7604L20.1769 55.8854L19.9164 56.0104L19.6664 56.1458C15.4362 58.4375 12.8314 63.0104 13.0085 67.8333C13.2065 72.9792 16.5094 76.8229 19.4059 78.4375C19.4684 78.4792 19.5309 78.5104 19.5726 78.5312L19.7393 78.6146L19.906 78.6979L20.0727 78.7813L20.2394 78.8646L20.4062 78.9375L20.5833 79.0104L20.7604 79.0833L20.9375 79.1562L21.1147 79.2187L21.2918 79.2812L21.4689 79.3437L21.646 79.4062L21.8336 79.4583L22.0211 79.5104L22.2087 79.5625L22.3962 79.6146L22.5838 79.6562L22.7713 79.6979L22.9589 79.7396L23.1568 79.7812L23.3548 79.8125L23.5528 79.8437L23.7507 79.875L23.9487 79.8958L24.1467 79.9167L24.3446 79.9375L24.5426 79.9479L24.7406 79.9583L24.9489 79.9687H25.1573H25.3657H25.4178L25.7512 79.9583L26.0846 79.9479L26.4181 79.9271L26.7515 79.8958L27.0849 79.8542L27.4183 79.8021L27.7517 79.75L28.0851 79.6875L28.4185 79.6146L28.752 79.5312L29.0854 79.4479L29.4188 79.3542L29.7522 79.25L30.0856 79.1354L30.419 79.0104L30.7525 78.8854L31.0546 78.7604L31.3568 78.625L31.6485 78.4896L31.9403 78.3437L32.2216 78.1979L32.5029 78.0417L32.7842 77.8958L33.0551 77.7292L33.3156 77.5625L33.5761 77.3854L33.8261 77.2083L34.0762 77.0208L34.3158 76.8333L34.5555 76.6458L34.7847 76.4479L35.0139 76.25L35.1494 76.125L35.2952 75.9896L35.4411 75.8542L35.5974 75.7083L35.7537 75.5521L35.91 75.3958L36.0767 75.2292L36.2434 75.0521L36.4205 74.875L36.5976 74.6875L36.7852 74.5L36.9727 74.3021L37.1603 74.0938L37.3583 73.8854L37.5562 73.6667L37.7646 73.4375L37.973 73.2083L38.1814 72.9687L38.4002 72.7187L38.619 72.4687L38.8378 72.2083L39.067 71.9375L39.2962 71.6563L39.5255 71.375L39.7651 71.0833L40.0047 70.7813L40.2444 70.4792L40.4944 70.1667L40.7445 69.8437L40.9946 69.5104L41.2446 69.1771L41.5051 68.8333L41.6197 68.6771L41.7343 68.5208L41.8489 68.3646L41.9636 68.2083L42.0782 68.0625L42.1928 67.9167L42.3074 67.7708L42.422 67.625L42.5262 67.4896L42.6304 67.3542L42.7346 67.2187L42.8388 67.0833L42.943 66.9583L43.0472 66.8333L43.1514 66.7083L43.2555 66.5833L43.3493 66.4583L43.4431 66.3437L43.5369 66.2292L43.6306 66.1146L43.7244 66L43.8182 65.8958L43.912 65.7917L44.0057 65.6875L44.0891 65.5833L44.1724 65.4792L44.2558 65.3854L44.3391 65.2917L44.4225 65.1979L44.5059 65.1042L44.5892 65.0104L44.6621 64.9271L44.7351 64.8437L44.808 64.7604L44.8809 64.6771L44.9539 64.5937L45.0268 64.5208L45.0997 64.4479L45.1623 64.375L45.2248 64.3021L45.3498 64.1667L45.4748 64.0417L45.5895 63.9271L45.7041 63.8125L45.8083 63.7083L45.902 63.6146L45.9958 63.5208L46.0792 63.4375L46.1625 63.3646L46.2354 63.2917L46.298 63.2292L46.3605 63.1771L46.4647 63.0833L46.5793 62.9896L46.6939 62.8958L46.8085 62.8021L46.9231 62.7187L47.0481 62.6354L47.1836 62.5521L47.3086 62.4687L47.4337 62.3854L47.5587 62.3125L47.6941 62.2396L47.8296 62.1667L47.965 62.0937L48.1005 62.0312L48.2359 61.9687L48.3818 61.9062L48.5277 61.8437L48.6735 61.7917L48.8194 61.7396L48.9653 61.6875L49.1112 61.6458L49.257 61.6042L49.4133 61.5625L49.5696 61.5312L49.7259 61.5104L49.8822 61.4792L50.0385 61.4583L50.1948 61.4375L50.351 61.4271L50.5073 61.4167L50.674 61.4062H50.8408H50.9866L51.1325 61.4167L51.2784 61.4271L51.4242 61.4375L51.5701 61.4583L51.716 61.4792L51.8514 61.5104L51.9869 61.5417L52.1223 61.5729L52.2578 61.6042L52.3932 61.6458L52.5287 61.6875L52.6641 61.7292L52.7996 61.7812L52.935 61.8333L53.06 61.8854L53.1851 61.9479L53.3101 62.0104L53.4351 62.0729L53.5602 62.1354L53.6852 62.2083L53.7998 62.2812L53.9144 62.3542L54.029 62.4375L54.1436 62.5208L54.2583 62.6042L54.3625 62.6875L54.4666 62.7813L54.5708 62.875L54.675 62.9688L54.7792 63.0625L54.8834 63.1667L54.9772 63.2708L55.071 63.375L55.1647 63.4792L55.2585 63.5937L55.3419 63.7083L55.4252 63.8229L55.5086 63.9375L55.5919 64.0521L55.6649 64.1667L55.7378 64.2917L55.8107 64.4167L55.8732 64.5417L55.9358 64.6667L55.9983 64.7917L56.0608 64.9271L56.1129 65.0625L56.165 65.1979L56.2171 65.3333L56.2588 65.4687L56.3004 65.6042L56.3421 65.7396L56.3838 65.8854L56.415 66.0312L56.4463 66.1771L56.4776 66.3229L56.4984 66.4687L56.5192 66.6146L56.5401 66.7604L56.5505 66.9062L56.5609 67.0625L56.5713 67.2187V67.375V67.5312L56.5609 67.6875L56.5505 67.8438L56.5401 67.9896L56.5192 68.1354L56.4984 68.2812L56.4776 68.4271L56.4463 68.5729L56.415 68.7187L56.3838 68.8646L56.3421 69.0104L56.3004 69.1458L56.2588 69.2812L56.2171 69.4167L56.165 69.5521L56.1129 69.6875L56.0608 69.8229L55.9983 69.9583L55.9358 70.0833L55.8732 70.2083L55.8107 70.3333L55.7378 70.4583L55.6649 70.5833L55.5919 70.6979L55.5086 70.8125L55.4252 70.9271L55.3419 71.0417L55.2585 71.1562L55.1647 71.2604L55.071 71.3646L54.9772 71.4687L54.8834 71.5729L54.7792 71.6771L54.675 71.7708L54.5708 71.8646L54.4666 71.9583L54.3625 72.0521L54.2583 72.1354L54.1436 72.2187L54.029 72.3021L53.9144 72.3854L53.7998 72.4583L53.6852 72.5313L53.5602 72.6042L53.4351 72.6667L53.3101 72.7292L53.1851 72.7917L53.06 72.8542L52.935 72.9062L52.7996 72.9583L52.6641 73.0104L52.5287 73.0521L52.3932 73.0937L52.2578 73.1354L52.1223 73.1667L51.9869 73.1979L51.8514 73.2292L51.7055 73.25L51.5597 73.2708L51.4138 73.2917L51.2679 73.3021L51.1221 73.3125L50.9762 73.3229H50.8303H44.037H43.8703L43.7036 73.3333L43.5473 73.3542L43.391 73.3854L43.2347 73.4271L43.0784 73.4687L42.9325 73.5208L42.7867 73.5833L42.6408 73.6458L42.5054 73.7187L42.3699 73.8021L42.2345 73.8854L42.1094 73.9792L41.9844 74.0833L41.8698 74.1875L41.7552 74.3021L41.651 74.4167L41.5468 74.5417L41.453 74.6667L41.3592 74.8021L41.2759 74.9375L41.203 75.0729L41.13 75.2187L41.0675 75.3646L41.005 75.5208L40.9529 75.6771L40.9112 75.8333L40.88 76L40.8487 76.1667L40.8279 76.3333L40.8174 76.5V76.6667V76.8333L40.8279 77L40.8487 77.1667L40.88 77.3333L40.9112 77.4896L40.9529 77.6458L41.005 77.8021L41.0675 77.9583L41.13 78.1042L41.203 78.25L41.2759 78.3854L41.3592 78.5208L41.453 78.6562L41.5468 78.7813L41.651 78.9062L41.7552 79.0208L41.8698 79.1354L41.9844 79.2396L42.1094 79.3437L42.2345 79.4375L42.3699 79.5208L42.5054 79.6042L42.6408 79.6771L42.7867 79.7396L42.9325 79.8021L43.0784 79.8542L43.2347 79.8958L43.391 79.9375L43.5473 79.9687L43.7036 79.9896L43.8703 80H44.037H50.8408H51.1533L51.4659 79.9896L51.7785 79.9687L52.0911 79.9375L52.3932 79.9062L52.6954 79.8646L52.9975 79.8125L53.2997 79.75L53.5914 79.6875L53.8832 79.6146L54.1749 79.5312L54.4666 79.4375L54.748 79.3437L55.0293 79.2396L55.3106 79.125L55.5815 79.0104L55.8524 78.8854L56.1233 78.7604L56.3838 78.625L56.6443 78.4792L56.9047 78.3333L57.1548 78.1771L57.4049 78.0208L57.6445 77.8542L57.8842 77.6771L58.1238 77.5L58.353 77.3125L58.5822 77.125L58.801 76.9271L59.0199 76.7292L59.2387 76.5208L59.447 76.3125L59.6554 76.0937L59.8534 75.875L60.0514 75.6458L60.2389 75.4167L60.4264 75.1771L60.6036 74.9375L60.7807 74.6875L60.9474 74.4375L61.1037 74.1875L61.26 73.9271L61.4059 73.6667L61.5517 73.3958L61.6872 73.125L61.8226 72.8542L61.9477 72.5729L62.0623 72.2917L62.1769 72.0104L62.2811 71.7187L62.3748 71.4271L62.4686 71.1354L62.552 70.8333L62.6353 70.5312L62.7083 70.2292L62.7708 69.9271L62.8229 69.6146L62.875 69.3021L62.9166 68.9896L62.9479 68.6771L62.9792 68.3542L63 68.0312V67.6875V67.3646V67.0417Z" fill="white"/>
</g>
<defs>
<linearGradient id="paint0_linear_413_2" x1="7.5" y1="8" x2="121.5" y2="120" gradientUnits="userSpaceOnUse">
<stop offset="0.296566" stop-color="#2273B9"/>
<stop offset="1" stop-color="#003D71"/>
</linearGradient>
<clipPath id="clip0_413_2">
<rect width="128" height="128" fill="white"/>
</clipPath>
</defs>
</svg>
